HIERARCHY
ROOT SpineBase
{
  OFFSET 0.000000 0.000000 0.000000
  CHANNELS 6 Xposition Yposition Zposition Zrotation Xrotation Yrotation
  JOINT SpineMid
  {
    OFFSET 0.000000 31.774036 0.000000
    CHANNELS 3 Zrotation Xrotation Yrotation
    JOINT SpineShoulder
    {
      OFFSET 0.240641 23.399795 -0.459645
      CHANNELS 3 Zrotation Xrotation Yrotation
      JOINT Neck
      {
        OFFSET 0.113477 7.722775 -0.449981
        CHANNELS 3 Zrotation Xrotation Yrotation
        JOINT Head
        {
          OFFSET 5.000435 11.793380 6.500100
          CHANNELS 3 Zrotation Xrotation Yrotation
          End Site
          {
            OFFSET 0 0 0
          }
        }
      }
      JOINT ShoulderLeft
      {
        OFFSET -11.072886 -2.777847 -12.388739
        CHANNELS 3 Zrotation Xrotation Yrotation
        JOINT ElbowLeft
        {
          OFFSET -6.384137 -26.662589 -6.541627
          CHANNELS 3 Zrotation Xrotation Yrotation
          JOINT WristLeft
          {
            OFFSET 2.316454 -20.628147 -4.069415
            CHANNELS 3 Zrotation Xrotation Yrotation
            JOINT HandLeft
            {
              OFFSET 0.080356 -5.135224 0.565266
              CHANNELS 3 Zrotation Xrotation Yrotation
              JOINT HandTipLeft
              {
                OFFSET 1.674293 -8.491082 -0.777072
                CHANNELS 3 Zrotation Xrotation Yrotation
                End Site
                {
                  OFFSET 0 0 0
                }
              }
              JOINT ThumbLeft
              {
                OFFSET 3.401124 2.121858 -0.633317
                CHANNELS 3 Zrotation Xrotation Yrotation
                End Site
                {
                  OFFSET 0 0 0
                }
              }
            }
          }
        }
      }
      JOINT ShoulderRight
      {
        OFFSET 11.085876 -5.094695 11.413122
        CHANNELS 3 Zrotation Xrotation Yrotation
        JOINT ElbowRight
        {
          OFFSET 3.111831 -26.842310 4.694438
          CHANNELS 3 Zrotation Xrotation Yrotation
          JOINT WristRight
          {
            OFFSET -0.533198 -27.509839 1.491490
            CHANNELS 3 Zrotation Xrotation Yrotation
            JOINT HandRight
            {
              OFFSET -1.954239 -9.086331 1.757848
              CHANNELS 3 Zrotation Xrotation Yrotation
              JOINT HandTipRight
              {
                OFFSET -1.109259 -5.846171 0.032627
                CHANNELS 3 Zrotation Xrotation Yrotation
                End Site
                {
                  OFFSET 0 0 0
                }
              }
              JOINT ThumbRight
              {
                OFFSET -2.154787 -0.784060 1.152156
                CHANNELS 3 Zrotation Xrotation Yrotation
                End Site
                {
                  OFFSET 0 0 0
                }
              }
            }
          }
        }
      }
    }
  }
  JOINT HipLeft
  {
    OFFSET -4.967193 1.406521 -8.244695
    CHANNELS 3 Zrotation Xrotation Yrotation
    JOINT KneeLeft
    {
      OFFSET -10.744337 -35.475986 -9.680545
      CHANNELS 3 Zrotation Xrotation Yrotation
      JOINT AnkleLeft
      {
        OFFSET -15.340213 -35.099123 7.323420
        CHANNELS 3 Zrotation Xrotation Yrotation
        JOINT FootLeft
        {
          OFFSET 9.096948 -3.819121 -11.106843
          CHANNELS 3 Zrotation Xrotation Yrotation
          End Site
          {
            OFFSET 0 0 0
          }
        }
      }
    }
  }
  JOINT HipRight
  {
    OFFSET 5.309392 0.023200 1.087156
    CHANNELS 3 Zrotation Xrotation Yrotation
    JOINT KneeRight
    {
      OFFSET -7.874872 -35.078189 4.177322
      CHANNELS 3 Zrotation Xrotation Yrotation
      JOINT AnkleRight
      {
        OFFSET -13.918529 -37.015421 7.798771
        CHANNELS 3 Zrotation Xrotation Yrotation
        JOINT FootRight
        {
          OFFSET 0.792636 -8.381378 -4.814149
          CHANNELS 3 Zrotation Xrotation Yrotation
          End Site
          {
            OFFSET 0 0 0
          }
        }
      }
    }
  }
}
MOTION
Frames: 9
Frame Time: 0.033333
-16.269844 81.467940 343.073154 -0.000000 0.000000 -42.241624 0.000000 0.000000 42.241624 -0.000000 0.000000 0.000000 -0.000000 0.000000 0.000000 0.000000 0.000000 0.000000 -0.000000 0.000000 0.000000 -0.000000 0.000000 0.000000 -0.000000 0.000000 0.000000 -0.000000 0.000000 0.000000 0.000000 0.000000 0.000000 0.000000 0.000000 0.000000 -0.000000 0.000000 0.000000 -0.000000 0.000000 0.000000 -0.000000 0.000000 0.000000 -0.000000 0.000000 0.000000 0.000000 0.000000 0.000000 0.000000 0.000000 0.000000 0.000000 0.000000 42.241624 -0.000000 0.000000 0.000000 -0.000000 0.000000 0.000000 0.000000 0.000000 0.000000 0.000000 0.000000 42.241624 -0.000000 0.000000 0.000000 -0.000000 0.000000 0.000000 0.000000 0.000000 0.000000
-16.921371 81.229954 342.225266 -0.671495 0.762747 -42.647954 1.010652 -0.106047 42.653359 -0.000000 0.000000 0.000000 -0.000000 0.000000 0.000000 0.000000 0.000000 0.000000 -1.220301 0.630818 0.154480 -2.165871 -0.186973 0.553841 -3.899755 1.936955 -1.383751 -0.118906 -4.470930 0.741865 0.000000 0.000000 0.000000 0.000000 0.000000 0.000000 -0.000000 0.000000 0.000000 -1.600961 -0.653307 -0.083222 2.746483 0.126369 0.393254 1.417748 0.398721 -0.313910 0.000000 0.000000 0.000000 0.000000 0.000000 0.000000 2.317508 -1.971976 43.447268 1.330516 2.392863 -0.676347 -7.180115 -6.147365 4.430711 0.000000 0.000000 0.000000 2.260286 -0.062658 42.951376 -0.944287 0.819662 -0.289423 -3.705883 -2.472225 1.843859 0.000000 0.000000 0.000000
-17.496347 81.024187 341.486187 -1.224909 1.365041 -42.989825 0.510126 -0.043702 42.977191 0.116630 -0.130278 -0.029567 0.765771 -0.854129 0.062857 0.000000 0.000000 0.000000 -1.486891 0.332177 0.318550 -3.816337 -0.352767 0.970683 -5.234240 3.202363 -2.222581 -2.232262 -8.018693 0.617776 0.000000 0.000000 0.000000 0.000000 0.000000 0.000000 0.765771 -0.854129 0.062857 -2.962044 -1.163815 -0.167984 5.329403 0.129203 0.765730 2.303466 0.634136 -0.632989 0.000000 0.000000 0.000000 0.000000 0.000000 0.000000 4.278771 -3.715510 44.568941 2.669806 4.520041 -1.393597 -14.624889 -13.558391 8.623458 0.000000 0.000000 0.000000 4.109749 -0.112677 43.557776 -1.266794 0.637142 -0.103239 -6.011707 -2.452049 2.439094 0.000000 0.000000 0.000000
-17.994772 80.850639 340.855916 -1.662901 1.810235 -43.265988 0.724380 -0.069179 43.256115 0.162095 -0.183116 -0.038990 1.022099 -1.078791 0.084995 0.000000 0.000000 0.000000 -2.072270 0.590983 0.426296 -4.968907 -0.483096 1.270114 -5.052924 3.943744 -2.734171 -5.014237 -10.727938 0.001861 0.000000 0.000000 0.000000 0.000000 0.000000 0.000000 1.022099 -1.078791 0.084995 -4.079386 -1.530818 -0.245766 7.742805 0.023359 1.128627 2.660297 0.709420 -0.935836 0.000000 0.000000 0.000000 0.000000 0.000000 0.000000 5.870437 -5.246725 45.582954 4.013698 6.380042 -2.131196 -21.716858 -21.392129 11.969738 0.000000 0.000000 0.000000 5.546817 -0.167632 44.051236 -1.552159 0.868602 -0.098813 -6.437538 -1.402122 2.467679 0.000000 0.000000 0.000000
-18.416647 80.709311 340.334454 -1.987686 2.101206 -43.475153 0.912897 -0.098826 43.469370 0.199571 -0.228591 -0.044974 1.195320 -1.170783 0.099024 0.000000 0.000000 0.000000 -2.549552 0.911168 0.503837 -5.647859 -0.567767 1.469990 -3.924555 4.285544 -3.006401 -7.730090 -12.697097 -0.798893 0.000000 0.000000 0.000000 0.000000 0.000000 0.000000 1.195320 -1.170783 0.099024 -4.950911 -1.754580 -0.309920 9.977194 -0.166001 1.488678 2.508921 0.621136 -1.202389 0.000000 0.000000 0.000000 0.000000 0.000000 0.000000 7.080562 -6.582086 46.470197 5.356871 7.975032 -2.869986 -27.895692 -28.496526 14.108771 0.000000 0.000000 0.000000 6.571693 -0.241766 44.425304 -1.600114 1.035182 -0.061293 -5.204466 1.146999 1.700162 0.000000 0.000000 0.000000
-18.761970 80.600202 339.921800 -2.201009 2.240192 -43.616095 1.076442 -0.133701 43.613545 0.229353 -0.267051 -0.047583 1.286277 -1.131478 0.104235 0.000000 0.000000 0.000000 -2.917644 1.292485 0.552591 -5.875873 -0.599893 1.584397 -2.125718 4.312466 -3.067463 -10.017063 -14.027446 -1.580350 0.000000 0.000000 0.000000 0.000000 0.000000 0.000000 1.286277 -1.131478 0.104235 -5.575737 -1.835803 -0.355710 12.015469 -0.400115 1.845470 1.886596 0.352836 -1.412520 0.000000 0.000000 0.000000 0.000000 0.000000 0.000000 7.898498 -7.736660 47.215734 6.693461 9.309572 -3.592146 -32.817942 -34.009976 15.070151 0.000000 0.000000 0.000000 7.185682 -0.345373 44.675926 -1.408574 1.134365 0.007280 -2.197851 5.137361 -0.066153 0.000000 0.000000 0.000000
-19.089833 80.502068 339.594347 -2.317562 2.186560 -43.678150 1.084100 -0.147595 43.673668 0.250466 -0.282181 -0.050828 1.886581 -1.995567 0.251412 0.000000 0.000000 0.000000 -3.067990 1.755688 0.549058 -5.330268 -0.773141 1.558277 0.238205 3.954677 -2.818092 -11.424839 -13.222004 -1.608014 0.000000 0.000000 0.000000 0.000000 0.000000 0.000000 1.386671 -1.046352 0.108800 -5.931013 -1.421449 -0.367318 15.834172 -3.143537 3.315078 -1.600738 0.778901 -2.126623 0.000000 0.000000 0.000000 0.000000 0.000000 0.000000 8.361341 -9.006185 47.949242 8.376615 10.806336 -4.554890 -36.979262 -38.306562 14.796934 0.000000 0.000000 0.000000 7.350199 -0.569513 44.795702 -0.691937 1.238698 0.128663 3.748735 11.327620 -3.878440 0.000000 0.000000 0.000000
-19.294063 80.460416 339.405999 -2.289196 1.980469 -43.618723 1.198393 -0.213962 43.612259 0.266895 -0.305901 -0.046140 2.164961 -2.085167 0.234596 0.000000 0.000000 0.000000 -3.204391 2.321101 0.533670 -4.708353 -0.638196 1.541351 3.658772 3.302692 -2.387335 -13.064953 -13.837903 -2.353788 0.000000 0.000000 0.000000 0.000000 0.000000 0.000000 1.303442 -0.690718 0.093940 -5.890103 -0.908121 -0.348244 16.233432 -4.885982 3.912222 -1.516031 2.341155 -2.638332 0.000000 0.000000 0.000000 0.000000 0.000000 0.000000 8.220515 -9.955701 48.368388 9.983809 11.677692 -5.296747 -38.423198 -39.045697 13.805494 0.000000 0.000000 0.000000 7.084626 -0.783618 44.732348 0.049144 1.229529 0.257658 11.563513 17.301190 -9.246766 0.000000 0.000000 0.000000
-19.339910 80.479717 339.378660 -2.126344 1.655785 -43.550694 1.351198 -0.264837 43.543620 0.273925 -0.318025 -0.034732 2.217826 -2.139845 0.271659 0.000000 0.000000 0.000000 -3.318878 2.849438 0.498916 -3.590802 -0.351892 1.427974 7.341191 2.359217 -1.674388 -13.837488 -13.154258 -2.633566 0.000000 0.000000 0.000000 0.000000 0.000000 0.000000 1.056014 -0.213390 0.066636 -5.855191 -0.453754 -0.331735 15.483116 -2.765817 3.084859 -0.178273 -0.753970 -1.701238 0.000000 0.000000 0.000000 0.000000 0.000000 0.000000 7.625965 -10.537363 48.569864 11.225488 12.045013 -5.779163 -36.027519 -35.452673 12.119110 0.000000 0.000000 0.000000 6.309445 -0.989050 44.573779 0.959022 1.027194 0.437956 19.538516 21.823589 -15.111399 0.000000 0.000000 0.000000
